# Blender v2.78 (sub 0) OBJ File: ''
# www.blender.org
mtllib block.mtl
o Cube.002
v 4.048054 -4.048054 -4.048053
v 4.048054 -4.048054 4.048054
v -4.048054 -4.048054 4.048053
v -4.048052 -4.048054 -4.048055
v 4.048056 4.048054 -4.048051
v -4.048053 4.048054 -4.048054
v -4.048055 4.048054 4.048052
v 4.048051 4.048054 4.048056
vt 0.0000 0.0000
vt 1.0000 0.0000
vt 1.0000 1.0000
vt 0.0000 1.0000
vt 0.0000 0.0000
vt 1.0000 0.0000
vt 1.0000 1.0000
vt 0.0000 1.0000
vt 1.0000 0.0000
vt 1.0000 1.0000
vt 0.0000 1.0000
vt 0.0000 0.0000
vt 1.0000 0.0000
vt 0.0000 1.0000
vt 0.0000 0.0000
vt 1.0000 0.0000
vt 1.0000 1.0000
vt 1.0000 0.0000
vt 1.0000 1.0000
vt 0.0000 1.0000
vn 0.0000 -1.0000 -0.0000
vn 0.0000 1.0000 0.0000
vn 1.0000 0.0000 0.0000
vn -0.0000 -0.0000 1.0000
vn -1.0000 -0.0000 -0.0000
vn 0.0000 0.0000 -1.0000
usemtl Material.002
s 1
f 1/1/1 2/2/1 3/3/1 4/4/1
f 5/5/2 6/6/2 7/7/2 8/8/2
f 1/1/3 5/9/3 8/10/3 2/11/3
f 2/12/4 8/13/4 7/7/4 3/14/4
f 3/15/5 7/16/5 6/17/5 4/4/5
f 5/5/6 1/18/6 4/19/6 6/20/6
